#!OML:ASF H:\BabyWalks\Project 1\Capture day 1\Session 1\baby.ASF
:FULLY-SPECIFIED
:DEGREES
885
root 43.6584 17.2194 -1.89406 338.813 79.5719 336.917
lowerback 19.3846 1.19692 2.27254
upperback 6.60613 2.33364 -0.302028
thorax -3.61433 1.32293 -2.13135
lowerneck 0.0764668 2.44737 4.97585
upperneck -7.2961 3.22901 -3.9572
head -2.17978 1.61611 -2.19179
rclavicle 7.15625e-015 -1.35174e-014
rhumerus -39.4538 7.26158 -81.7139
rradius 50.7657
rwrist 2.02812
rhand -11.6062 -19.5758
rfingers 7.12502
rthumb 14.4364 -49.0537
lclavicle 7.15625e-015 -1.35174e-014
lhumerus -42.9111 -4.05905 73.6416
lradius 56.5653
lwrist 5.90836
lhand -0.289472 4.97019
lfingers 7.12502
lthumb 25.3131 33.3105
rfemur 10.7417 14.7409 23.5561
rtibia 10.4177
rfoot -21.1613 -4.44538
rtoes -4.79003
lfemur -24.1461 4.05303 -12.9917
ltibia 40.7891
lfoot -20.7607 -6.68177
ltoes -3.22377
886
root 43.6602 17.2194 -1.8945 338.842 79.6044 336.954
lowerback 19.3817 1.19278 2.26525
upperback 6.59141 2.32531 -0.317877
thorax -3.62861 1.31818 -2.14252
lowerneck 0.0355586 2.42408 4.98274
upperneck -7.28454 3.19892 -3.91597
head -2.17048 1.59971 -2.17782
rclavicle -2.3059e-014 1.66979e-014
rhumerus -39.5002 7.29646 -81.7155
rradius 50.8972
rwrist 1.94696
rhand -11.6396 -19.4555
rfingers 7.12502
rthumb 14.4043 -48.9356
lclavicle -2.3059e-014 1.66979e-014
lhumerus -42.8974 -4.14475 73.6424
lradius 56.6611
lwrist 5.4815
lhand -0.366309 4.91888
lfingers 7.12502
lthumb 25.2395 33.2696
rfemur 10.7459 14.7366 23.545
rtibia 10.4495
rfoot -21.183 -4.47758
rtoes -4.79889
lfemur -24.1332 4.10324 -13.0139
ltibia 40.773
lfoot -20.7638 -6.79108
ltoes -3.12826
887
root 43.6623 17.2194 -1.89509 338.9 79.6387 337.022
lowerback 19.3786 1.18911 2.25317
upperback 6.5773 2.31672 -0.334139
thorax -3.6423 1.3133 -2.15134
lowerneck -0.0281623 2.39859 5.00731
upperneck -7.24564 3.16408 -3.89386
head -2.14792 1.58082 -2.17222
rclavicle -1.19271e-015 -1.63003e-014
rhumerus -39.5441 7.3354 -81.7214
rradius 51.0267
rwrist 1.87057
rhand -11.6919 -19.3367
rfingers 7.12502
rthumb 14.3539 -48.8205
lclavicle -1.19271e-015 -1.63003e-014
lhumerus -42.8917 -4.29132 73.6706
lradius 56.7262
lwrist 4.96813
lhand -0.413329 4.87941
lfingers 7.12502
lthumb 25.1944 33.2365
rfemur 10.7533 14.724 23.5256
rtibia 10.4831
rfoot -21.2057 -4.50273
rtoes -4.81333
lfemur -24.1134 4.14972 -13.0431
ltibia 40.754
lfoot -20.7665 -6.89673
ltoes -3.03786
888
root 43.6646 17.2197 -1.89569 338.968 79.6734 337.102
lowerback 19.3737 1.18524 2.23462
upperback 6.56381 2.30676 -0.347772
thorax -3.65485 1.30772 -2.15331
lowerneck -0.105394 2.37279 5.03856
upperneck -7.18919 3.12752 -3.88477
head -2.11705 1.56116 -2.17147
rclavicle 1.55052e-014 -4.77083e-015
rhumerus -39.5848 7.38363 -81.7316
rradius 51.1579
rwrist 1.80235
rhand -11.7627 -19.2248
rfingers 7.12502
rthumb 14.2857 -48.7134
lclavicle 1.55052e-014 -4.77083e-015
lhumerus -42.8949 -4.49024 73.7257
lradius 56.7656
lwrist 4.44308
lhand -0.429899 4.87462
lfingers 7.12502
lthumb 25.1785 33.2339
rfemur 10.7622 14.7048 23.5024
rtibia 10.5162
rfoot -21.2282 -4.52192
rtoes -4.83059
lfemur -24.0893 4.19353 -13.0743
ltibia 40.7317
lfoot -20.7715 -6.99894
ltoes -2.95853
889
root 43.6671 17.22 -1.89627 339.051 79.7087 337.202
lowerback 19.3728 1.18211 2.2104
upperback 6.54856 2.29688 -0.358899
thorax -3.6717 1.30199 -2.14962
lowerneck -0.170696 2.35356 5.06409
upperneck -7.13466 3.09999 -3.87663
head -2.0886 1.54622 -2.17046
rclavicle -1.68967e-014 -5.1684e-015
rhumerus -39.6271 7.44063 -81.7439
rradius 51.2908
rwrist 1.73755
rhand -11.8337 -19.1311
rfingers 7.12502
rthumb 14.2173 -48.6245
lclavicle -1.68967e-014 -5.1684e-015
lhumerus -42.9126 -4.73691 73.8089
lradius 56.7869
lwrist 3.95728
lhand -0.421251 4.91351
lfingers 7.12502
lthumb 25.1868 33.2716
rfemur 10.7757 14.6792 23.4749
rtibia 10.5476
rfoot -21.2499 -4.53427
rtoes -4.85273
lfemur -24.0587 4.232 -13.1087
ltibia 40.7072
lfoot -20.7767 -7.09519
ltoes -2.88203
